<svg width="96" height="96" xmlns="http://www.w3.org/2000/svg">
 <defs>
  <style>.cls-1{fill:#fbb040;}.cls-2{fill:#fff;fill-rule:evenodd;}</style>
 </defs>
 <g>
  <title>background</title>
  <rect fill="none" id="canvas_background" height="98" width="98" y="-1" x="-1"/>
 </g>
 <g>
  <title>Layer 1</title>
  <g stroke="null" id="CTOX_Vertical">
   <g stroke="null" id="Layer_1_copy_3">
    <circle stroke="null" id="svg_1" r="47.486534" cy="48.317571" cx="47.983201" class="cls-1"/>
    <g stroke="null" id="Cloud_copy_6">
     <path stroke="null" id="svg_2" d="m76.43707,54.976937l0,0a16.781365,16.781365 0 0 0 -21.338333,-16.155019c-4.903231,0.869795 -8.649494,5.543759 -8.649494,10.779073c0,0.348627 0.018909,0.691345 0.050817,1.031699c0.452624,-4.289884 4.006256,-7.629612 8.325684,-7.629612c4.625512,0 8.375319,3.830169 8.375319,8.556133c0,3.992074 -2.677928,7.34362 -6.298921,8.287867l-0.06618,0.016545l-0.219812,0.050817a10.293359,10.293359 0 0 1 -2.030309,0.226903l0,0l-0.118179,0a10.569897,10.569897 0 0 1 -2.149669,-0.220994a11.692594,11.692594 0 0 1 -9.420019,-11.463327l0.023636,0.021272a14.188526,14.188526 0 0 1 0.044908,-2.038581a20.749804,20.749804 0 0 1 28.577956,-17.588525c-4.136252,-6.743273 -11.947859,-9.427109 -19.241844,-8.176779c-11.284877,1.929857 -23.555364,17.064994 -15.436493,35.232595c-9.243932,-16.308651 -0.216267,-31.660055 10.093637,-35.89085c-5.962112,0.015363 -11.198607,2.591657 -15.022867,6.558914c-9.350293,9.690648 -9.845462,31.798324 5.427944,41.824599c-14.52179,-7.953422 -16.920816,-26.836003 -10.884252,-38.053519c-7.614249,7.392073 -7.817516,19.429748 -6.02711,25.68258c4.504969,15.700031 20.876255,24.748969 36.583376,20.272362c11.543688,-3.284184 19.400204,-11.707957 19.400204,-21.165792l0,-0.158359z" class="cls-2"/>
    </g>
    <path stroke="null" id="svg_3" d="m44.077398,9.21699l-8.577405,0l0,14.813691a20.667079,20.667079 0 0 1 8.577405,-3.696628l0,-11.117064z" class="cls-2"/>
    <path stroke="null" id="svg_4" d="m35.499993,88.165041l8.577405,0l0,-11.22697a29.697108,29.697108 0 0 1 -8.577405,-3.039554l0,14.266524z" class="cls-2"/>
    <path stroke="null" id="svg_5" d="m60.46641,21.017126l0,-11.800136l-8.576223,0l0,11.913588q0.531804,-0.129996 1.063608,-0.219812a20.399995,20.399995 0 0 1 7.512615,0.106361z" class="cls-2"/>
    <path stroke="null" id="svg_6" d="m51.890187,77.118885l0,11.046156l8.576223,0l0,-13.015012q-1.3496,0.508168 -2.774834,0.91943a29.753833,29.753833 0 0 1 -5.801389,1.049426z" class="cls-2"/>
   </g>
  </g>
 </g>
</svg>